<svg width="22" height="22" viewBox="0 0 22 22" fill="none" xmlns="http://www.w3.org/2000/svg">
<path d="M20.3117 5.71202H0.304857L3.01707 15.8289L16.1794 16.0372L20.3117 5.71202Z" fill="#B5B5B5"/>
<path d="M14.0735 19.0161C14.0735 20.1895 15.0163 21.1408 16.1794 21.1408C17.3425 21.1408 18.2854 20.1895 18.2854 19.0161C18.2854 17.8426 17.3425 16.8913 16.1794 16.8913C15.0163 16.8913 14.0735 17.8426 14.0735 19.0161Z" fill="#B5B5B5"/>
<path d="M2.49058 19.0161C2.49058 20.1895 3.43346 21.1408 4.59656 21.1408C5.75966 21.1408 6.70254 20.1895 6.70254 19.0161C6.70254 17.8426 5.75966 16.8913 4.59656 16.8913C3.43346 16.8913 2.49058 17.8426 2.49058 19.0161Z" fill="#B5B5B5"/>
<path fill-rule="evenodd" clip-rule="evenodd" d="M19.3383 0.101562L16.1794 16.0372L18.2649 16.0372L21.4238 0.101679L19.3383 0.101562Z" fill="#B5B5B5"/>
</svg>
