<svg width="24" height="21" viewBox="0 0 24 21" xmlns="http://www.w3.org/2000/svg">
<path fill-rule="evenodd" clip-rule="evenodd" d="M8.66776 0.994218C10.0282 0.945293 11.3821 1.20564 12.6274 1.75566C13.8727 2.30568 14.977 3.13104 15.8572 4.1696C16.5677 5.00796 17.1172 5.96761 17.4806 7.00006L17.9994 7.00006C19.2745 6.99922 20.5175 7.40465 21.5467 8.15753C22.576 8.91056 23.3387 9.97202 23.7239 11.1878C24.1091 12.4037 24.0968 13.7106 23.6889 14.919C23.281 16.1274 22.4987 17.1744 21.4554 17.9081C21.0036 18.2257 20.3799 18.117 20.0622 17.6653C19.7445 17.2135 19.8532 16.5897 20.305 16.2721C21.0005 15.783 21.522 15.085 21.794 14.2794C22.0659 13.4738 22.0741 12.6025 21.8173 11.7919C21.5605 10.9814 21.0521 10.2737 20.3658 9.7717C19.6796 9.26968 18.8512 8.99939 18.001 9.00006H16.7402C16.2836 9.00006 15.885 8.69083 15.7716 8.2486C15.5084 7.22299 15.016 6.27044 14.3314 5.46267C13.6468 4.6549 12.7879 4.01295 11.8194 3.58516C10.8508 3.15736 9.7978 2.95487 8.73964 2.99293C7.68149 3.03098 6.64576 3.30859 5.71042 3.80485C4.77508 4.30111 3.9645 5.00309 3.33972 5.85795C2.71494 6.71281 2.29223 7.69826 2.10341 8.74013C1.91459 9.782 1.96459 10.8531 2.24964 11.8729C2.53469 12.8926 3.04736 13.8344 3.74906 14.6273C4.11506 15.0409 4.07648 15.6729 3.66288 16.0389C3.24929 16.4049 2.6173 16.3664 2.2513 15.9528C1.34911 14.9333 0.689966 13.7224 0.323475 12.4113C-0.0430157 11.1002 -0.107298 9.72302 0.135466 8.38348C0.378231 7.04394 0.921717 5.77692 1.72501 4.67782C2.5283 3.57872 3.57047 2.67617 4.77305 2.03812C5.97563 1.40007 7.30728 1.04314 8.66776 0.994218ZM12.0002 10.0001C12.5525 10.0001 13.0002 10.4478 13.0002 11.0001V17.5858L15.2931 15.2929C15.6836 14.9024 16.3168 14.9024 16.7073 15.2929C17.0978 15.6835 17.0978 16.3166 16.7073 16.7072L12.7073 20.7072C12.3168 21.0977 11.6836 21.0977 11.2931 20.7072L7.29307 16.7072C6.90255 16.3166 6.90255 15.6835 7.29307 15.2929C7.68359 14.9024 8.31676 14.9024 8.70728 15.2929L11.0002 17.5858V11.0001C11.0002 10.4478 11.4479 10.0001 12.0002 10.0001Z"/>
</svg>
