<svg width="80" height="71" viewBox="0 0 80 71" fill="none" xmlns="http://www.w3.org/2000/svg">
<path fill-rule="evenodd" clip-rule="evenodd" d="M22.5565 0.902344H22.5786C28.5318 0.902344 32.7189 2.32186 35.6012 4.05583C36.1738 4.40033 36.3588 5.14383 36.0143 5.71647C35.6698 6.28911 34.9263 6.47406 34.3536 6.12955C31.8825 4.6429 28.1399 3.32592 22.6007 3.32242C16.5776 3.54723 11.5686 5.89091 8.05366 9.92293C4.52577 13.9698 2.42007 19.8152 2.42007 27.1653C2.42007 31.4898 4.11867 35.8901 6.89604 40.1825C9.67009 44.4697 13.4712 48.5727 17.5516 52.2774C25.7127 59.6872 34.855 65.383 38.7192 67.6597C39.5237 68.1337 40.4763 68.1337 41.2809 67.6597C45.145 65.383 54.2873 59.6872 62.4484 52.2774C66.5288 48.5727 70.3299 44.4697 73.104 40.1825C75.8813 35.8901 77.5799 31.4898 77.5799 27.1653C77.5799 19.8152 75.4742 13.9698 71.9464 9.92293C68.4314 5.8909 63.4224 3.54722 57.3993 3.32242C50.7207 3.32607 46.8382 5.00887 44.5968 6.67442C42.6057 8.15393 41.8253 9.66765 41.489 10.3199C41.456 10.384 41.4272 10.4399 41.402 10.4865C40.4792 12.4108 41.2139 14.1025 42.6935 16.182C42.9989 16.6113 43.3198 17.0352 43.6516 17.4734L43.8474 17.7323C44.2425 18.2553 44.6479 18.7991 45.0169 19.3517C45.7443 20.4409 46.4116 21.6797 46.5778 23.0491C46.8549 25.3315 46.7385 26.9414 46.4479 28.2585C46.4117 28.4226 46.3719 28.5844 46.3293 28.7435C49.8669 26.9235 54.2983 28.5403 55.7882 32.3394C56.4503 34.0276 57.1283 35.7412 57.6676 37.0705C58.7087 39.6365 57.5755 41.9208 55.7335 42.8538C54.8301 43.3114 53.7448 43.4463 52.7079 43.0976C52.479 43.0206 52.2582 42.922 52.0471 42.8025C52.21 46.1614 51.5084 50.2209 47.9181 52.6969C44.4689 55.0757 41.116 56.4669 37.3734 56.5854C33.6498 56.7033 29.689 55.5563 25.0253 53.1424C20.0526 50.5686 17.7918 46.138 16.746 42.2728C16.2225 40.3384 15.9949 38.5193 15.8832 37.0967C15.8273 36.3848 15.8003 35.7683 15.7806 35.2907C15.7592 34.7727 15.7482 34.5062 15.7316 34.3865C15.7236 34.3293 15.6555 34.133 15.31 33.6678C15.1521 33.4551 14.9666 33.2243 14.7471 32.952L14.726 32.9258C14.5165 32.666 14.282 32.3751 14.042 32.0606C13.0392 30.7462 11.8933 28.9606 11.4357 26.448C10.5034 21.3301 14.0826 15.0926 20.386 13.9231C23.5586 13.3345 26.3216 14.2359 28.3789 15.5997C30.3969 16.9375 31.8473 18.7952 32.3541 20.3164C32.7911 21.6283 32.9065 22.5302 32.8746 23.3004C32.8596 23.6625 32.8124 23.972 32.7752 24.2158L32.7729 24.2308C32.7339 24.4867 32.7076 24.6663 32.7005 24.8642C32.6898 25.1664 32.7473 25.5093 32.8309 26.0079C32.8585 26.1722 32.889 26.3537 32.9207 26.556C33.0315 27.2625 33.146 28.1951 32.9226 29.1076C32.7841 29.6735 32.3898 30.3177 32.0339 30.8428C31.6444 31.4175 31.1676 32.0369 30.7147 32.5976C30.6358 32.6954 30.5571 32.7918 30.4794 32.8865C30.9641 32.9199 31.49 32.9475 32.0214 32.9605C33.0094 32.9847 33.9631 32.9569 34.6931 32.8404C35.0603 32.7818 35.3162 32.709 35.4738 32.6395C35.5016 32.6273 35.523 32.6166 35.539 32.608C36.0253 31.6648 37.0217 29.8004 37.8249 28.3043C38.8156 26.4587 41.0842 25.7302 42.9647 26.6428C43.4166 26.8621 43.809 27.1586 44.1319 27.5096C44.3232 26.5253 44.4062 25.2423 44.1754 23.3407C44.0786 22.5431 43.6676 21.689 43.0043 20.6956C42.6779 20.2069 42.3099 19.712 41.9163 19.1909L41.7281 18.9421C41.3963 18.5038 41.0499 18.0464 40.7216 17.585C39.1828 15.4224 37.6553 12.6553 39.238 9.40239L39.2541 9.36944L39.2721 9.33753C39.2931 9.30015 39.3212 9.24519 39.3573 9.17453C39.6881 8.5269 40.6923 6.56068 43.1534 4.73192C45.885 2.70215 50.3044 0.90227 57.4215 0.902344H57.4435L57.4656 0.903147C64.1067 1.14524 69.774 3.74817 73.7706 8.33266C77.7585 12.9072 80 19.3572 80 27.1653C80 32.1201 78.0598 36.9781 75.1358 41.4972C72.2084 46.0213 68.2455 50.2827 64.0752 54.0691C55.7351 61.6414 46.43 67.4348 42.5094 69.7448C40.9467 70.6655 39.0533 70.6655 37.4907 69.7448C33.57 67.4348 24.2649 61.6414 15.9248 54.0691C11.7545 50.2827 7.79158 46.0213 4.86421 41.4972C1.94016 36.9781 0 32.1201 0 27.1653C0 19.3572 2.24156 12.9072 6.22944 8.33266C10.226 3.74817 15.8933 1.14524 22.5345 0.903147L22.5565 0.902344ZM50.4581 35.4704L50.4564 35.4667C50.1844 34.8666 49.482 34.594 48.8766 34.854C48.2714 35.114 47.9855 35.8108 48.233 36.4212L48.2339 36.4234L48.2411 36.4414C48.2478 36.4586 48.2585 36.486 48.2726 36.523C48.3009 36.5971 48.3428 36.7098 48.3947 36.8567C48.4986 37.1509 48.6419 37.5811 48.7946 38.1132C49.1013 39.1817 49.44 40.6399 49.5815 42.2211C49.8703 45.4503 49.3155 48.7934 46.5441 50.7047C43.3425 52.9128 40.4344 54.0672 37.2968 54.1665C34.1403 54.2665 30.6016 53.3036 26.1377 50.9931C21.9826 48.8425 20.0258 45.1286 19.082 41.6407C18.6106 39.8986 18.4004 38.239 18.2959 36.9073C18.2436 36.2421 18.218 35.6624 18.1986 35.1909L18.1932 35.0597C18.1776 34.673 18.1623 34.2965 18.1287 34.0539C18.0285 33.3319 17.607 32.7017 17.253 32.225C17.0613 31.9668 16.8446 31.6979 16.6312 31.4331L16.6162 31.4145C16.4028 31.1498 16.1861 30.881 15.966 30.5926C15.0756 29.4255 14.1775 27.9959 13.8165 26.0143C13.1115 22.1436 15.8988 17.217 20.8275 16.3026C23.271 15.8492 25.4048 16.5317 27.0417 17.6168C28.7179 18.728 29.7592 20.1842 30.058 21.0813C30.4266 22.1877 30.4736 22.7915 30.4566 23.2001C30.4475 23.42 30.4191 23.6129 30.3805 23.8661L30.3774 23.8859C30.3408 24.1262 30.2944 24.4302 30.282 24.7781C30.2616 25.3523 30.3774 26.0302 30.4703 26.5734C30.4921 26.701 30.5127 26.8215 30.5299 26.9311C30.6375 27.6171 30.6708 28.1284 30.572 28.5322C30.5723 28.5306 30.5707 28.5374 30.5652 28.5533C30.5598 28.569 30.5515 28.5907 30.5395 28.6189C30.5151 28.676 30.4798 28.7491 30.4313 28.8388C30.3335 29.0196 30.1985 29.2373 30.0306 29.485C29.6951 29.9801 29.2654 30.5404 28.832 31.0771C28.401 31.6108 27.9781 32.1065 27.662 32.4697C27.5043 32.6509 27.374 32.7983 27.2835 32.8999C27.2624 32.9236 27.2435 32.9447 27.227 32.9632C27.208 32.9845 27.1921 33.0022 27.1794 33.0163L27.1528 33.0458L27.1447 33.0548C26.8424 33.3882 26.7501 33.8619 26.9052 34.2844C27.0602 34.707 27.4371 35.0086 27.8834 35.0673L28.0411 33.8676C27.8834 35.0673 27.884 35.0674 27.8842 35.0674L27.891 35.0683L27.9097 35.0707L27.9788 35.0794C28.0385 35.0868 28.1249 35.0972 28.2344 35.1099C28.4535 35.1352 28.7656 35.1693 29.1422 35.2049C29.8931 35.2759 30.9108 35.3541 31.9621 35.3798C33.0015 35.4053 34.1274 35.3813 35.0743 35.2303C35.5455 35.1551 36.0274 35.0403 36.45 34.8539C36.8543 34.6757 37.3579 34.3644 37.6443 33.8058C38.0977 32.9218 39.1227 31.0034 39.9571 29.449C40.3318 28.751 41.1914 28.4722 41.9081 28.82C42.6094 29.1604 42.9155 29.9702 42.6275 30.6686C42.0848 31.9851 41.3737 33.6651 40.6779 35.1773C39.9629 36.7312 39.3189 37.9842 38.9108 38.5356C38.9128 38.5327 38.9126 38.533 38.9092 38.5359C38.8914 38.5516 38.787 38.6434 38.487 38.7611C38.1566 38.8906 37.7037 39.0074 37.139 39.104C36.0124 39.2968 34.6025 39.3832 33.1921 39.4076C31.7906 39.4318 30.4295 39.3943 29.4157 39.3504C28.9098 39.3285 28.4925 39.3051 28.2027 39.2872C28.0578 39.2783 27.9449 39.2707 27.8688 39.2655L27.7829 39.2594L27.7618 39.2579L27.7558 39.2574C27.0895 39.207 26.5084 39.7063 26.458 40.3726C26.4075 41.039 26.9068 41.6201 27.5732 41.6706L27.6645 40.4651C27.5732 41.6706 27.574 41.6706 27.5742 41.6707L27.5829 41.6713L27.6078 41.6731L27.7019 41.6798C27.7836 41.6854 27.9025 41.6934 28.0538 41.7027C28.3562 41.7213 28.7883 41.7456 29.311 41.7682C30.3546 41.8134 31.7677 41.8526 33.2339 41.8273C34.6912 41.8021 36.2425 41.7126 37.5472 41.4894C38.1981 41.378 38.8283 41.2268 39.3707 41.014C39.8867 40.8116 40.4687 40.4984 40.8558 39.9755C41.2459 39.4486 41.7078 38.6071 42.1796 37.6541C42.1875 37.6919 42.1958 37.7296 42.2043 37.7673L43.2682 42.4761C43.4155 43.128 44.0633 43.537 44.7152 43.3897C45.367 43.2425 45.7761 42.5946 45.6288 41.9428L44.5649 37.234C44.0366 34.8957 45.0076 32.4742 47.0051 31.1488C49.3368 29.6016 52.5097 30.608 53.5352 33.2229C54.1982 34.9136 54.8803 36.6377 55.4251 37.9803C55.9853 39.3611 55.3779 40.3211 54.64 40.6949C54.2535 40.8907 53.8391 40.9248 53.4794 40.8038C53.1371 40.6887 52.7267 40.3934 52.4084 39.7038C51.5309 37.8025 51.0422 36.7417 50.773 36.1565C50.6384 35.8639 50.5588 35.6904 50.5129 35.5903L50.467 35.4898L50.4581 35.4704Z" fill="#0A6D90"/>
<path d="M61.4442 10.0522C61.7184 9.44272 62.4347 9.17096 63.0441 9.44517C68.7156 11.997 72.3997 17.2833 73.2744 24.7359C73.3523 25.3996 72.8773 26.0008 72.2136 26.0787C71.5499 26.1566 70.9487 25.6817 70.8708 25.018C70.0785 18.2674 66.8239 13.7996 62.0511 11.6521C61.4417 11.3779 61.1699 10.6616 61.4442 10.0522Z" fill="#0A6D90"/>
</svg>
