<svg width="81" height="78" viewBox="0 0 81 78" fill="none" xmlns="http://www.w3.org/2000/svg">
<path fill-rule="evenodd" clip-rule="evenodd" d="M37.9118 32.1945V21.5787L21.5603 13.4623V16.4212L19.1647 14.1104V11.489C19.1647 11.038 19.4179 10.6253 19.82 10.4211L38.3781 0.993183C38.7158 0.821603 39.1148 0.819909 39.454 0.988616L58.409 10.4165C58.816 10.619 59.0734 11.0344 59.0734 11.489V33.8182C59.0734 33.963 59.0473 34.1038 58.9985 34.2351L66.0493 34.0266C66.428 34.0154 66.7896 34.184 67.0245 34.4812L80.1502 51.0912C80.432 51.4479 80.4877 51.9334 80.2939 52.3446L73.5756 66.5971L71.755 64.8409L77.356 52.9586L59.9353 53.4391L50.2045 44.0525L45.5203 38.1346L45.0668 39.0965L43.2463 37.3404L44.1947 35.3283C44.387 34.9204 44.7921 34.655 45.2428 34.6417L54.054 34.3812L56.6778 33.0762V13.2968L40.3073 21.5727V34.5053L37.9118 32.1945ZM58.8172 51.0735L47.6513 36.9671L65.5182 36.4389L76.6932 50.5804L58.8172 51.0735ZM22.9902 11.4976L38.9263 3.40167L55.064 11.4283L39.1046 19.4964L22.9902 11.4976Z" fill="#0A6D90"/>
<path d="M79.7569 75.8883C80.233 76.3476 80.2467 77.1059 79.7874 77.582C79.3281 78.0581 78.5699 78.0717 78.0938 77.6124L1.13293 3.37329C0.656818 2.91402 0.643169 2.15574 1.10244 1.67963C1.56171 1.20352 2.31999 1.18987 2.7961 1.64915L79.7569 75.8883Z" fill="#0A6D90"/>
<path fill-rule="evenodd" clip-rule="evenodd" d="M19.1647 24.0959V32.9246L1.06348 42.1204C0.661457 42.3246 0.408203 42.7373 0.408203 43.1883V65.5175C0.408203 65.9684 0.661458 66.3812 1.06348 66.5854L19.6216 76.0133C19.9593 76.1849 20.3584 76.1865 20.6975 76.0178L39.6525 66.59C40.0595 66.3875 40.3169 65.9721 40.3169 65.5175V63.8613L47.5781 73.2121C47.8104 73.5113 48.1706 73.683 48.5494 73.675L69.7149 73.2292C69.8282 73.2268 69.9388 73.2084 70.044 73.1758L67.6602 70.8763L50.6432 71.2348L56.0785 59.7042L54.2579 57.948L48.4031 70.3687L37.1542 55.8826L40.273 49.2664H40.3169V49.1733L41.8312 45.9608L35.9215 40.2601L24.738 34.6976L21.5603 33.0832V26.4067L19.1647 24.0959ZM37.9213 60.7763L34.8114 56.7714C34.5348 56.4152 34.4817 55.9339 34.674 55.526L37.9213 48.637V44.996L21.551 53.2718V72.9178L37.9213 64.7755V60.7763ZM23.6623 36.8381L36.1747 43.1946L20.3483 51.1955L4.23391 43.1967L20.1698 35.101L23.6623 36.8381ZM19.1554 53.2778L2.80378 45.1613V64.7825L19.1554 73.0894V53.2778Z" fill="#0A6D90"/>
</svg>
