<svg width="80" height="80" viewBox="0 0 80 80" fill="none" xmlns="http://www.w3.org/2000/svg">
<path fill-rule="evenodd" clip-rule="evenodd" d="M28.3779 12.6676C28.4139 12.6735 28.4464 12.6789 28.476 12.6837C29.4179 9.1284 31.567 6.07851 33.7445 3.89462C34.906 2.72973 36.1024 1.78379 37.1767 1.12035C37.7134 0.788836 38.236 0.517756 38.7219 0.326218C39.191 0.141337 39.7016 0 40.1922 0C40.6828 0 41.1934 0.141333 41.6624 0.326211C42.1483 0.517745 42.6709 0.788821 43.2077 1.12033C44.282 1.78376 45.4784 2.72969 46.6399 3.89456C48.8174 6.07843 50.9665 9.1283 51.9084 12.6836C51.9382 12.6788 51.9709 12.6734 52.0072 12.6674C52.0913 12.6535 52.1945 12.6364 52.3259 12.6163C52.6688 12.5636 53.1913 12.4976 53.7487 12.6242C54.3566 12.7622 54.9111 13.1042 55.3601 13.6925C56.2605 14.8723 56.0865 16.0152 55.8952 16.7737C55.8533 16.9399 55.8192 17.063 55.7914 17.1635L55.7839 17.1906C56.1106 17.1577 56.5654 17.1489 57.0572 17.3219C57.6283 17.5229 58.1147 17.919 58.5153 18.4993C59.4084 19.7926 59.1424 21.4116 58.9244 22.4598C58.8706 22.7184 58.8113 22.9746 58.7568 23.2103L58.7385 23.2893C58.6775 23.5529 58.6242 23.7875 58.5824 24.0051C58.5208 24.3249 58.5009 24.5325 58.5001 24.6609C58.5668 24.6816 58.6425 24.7015 58.7548 24.7309L58.7651 24.7336L58.8011 24.7429C59.014 24.798 59.4533 24.9115 59.8226 25.1777C60.3324 25.545 60.6158 26.109 60.6158 26.7868C60.6158 28.4255 60.4305 29.9983 60.0916 31.4968C60.3738 31.7454 60.5803 32.0147 60.7269 32.2144C60.8055 32.3215 60.8665 32.4066 60.9161 32.4759L60.9182 32.4789L60.9745 32.5572C64.1545 30.7093 67.8307 30.0723 70.9147 30.0678C72.5597 30.0654 74.0746 30.2425 75.3033 30.533C75.9173 30.6781 76.4785 30.856 76.9575 31.0641C77.4199 31.265 77.8809 31.5262 78.2278 31.8731C78.5747 32.22 78.8359 32.681 79.0368 33.1434C79.2449 33.6224 79.4228 34.1836 79.5679 34.7976C79.8584 36.0263 80.0356 37.5412 80.0332 39.1862C80.0287 42.2701 79.3917 45.9463 77.5438 49.1263L77.5979 49.1653L77.6251 49.1847C77.6944 49.2344 77.7795 49.2953 77.8866 49.374C78.1663 49.5792 78.5825 49.902 78.8871 50.3856C79.2194 50.9131 79.3696 51.547 79.2711 52.2804C79.0735 53.7514 78.1423 54.4366 77.4708 54.8376C77.3236 54.9255 77.2125 54.9884 77.1217 55.0398L77.0973 55.0537C77.3515 55.2614 77.6793 55.5768 77.9047 56.0469C78.1665 56.5928 78.2303 57.2168 78.1033 57.9105C77.8202 59.4565 76.4874 60.4132 75.592 61.0003C75.3713 61.1449 75.1483 61.2841 74.9433 61.4121L74.874 61.4553C74.6445 61.5986 74.4409 61.7267 74.2575 61.851C73.9878 62.0337 73.827 62.1664 73.7356 62.2566C73.7681 62.3184 73.8076 62.386 73.8662 62.4862L73.8716 62.4954L73.8904 62.5275C74.002 62.7169 74.2324 63.1079 74.3053 63.5572C74.406 64.1774 74.2076 64.7766 73.7283 65.2559C68.842 70.1422 62.4974 71.8371 56.7977 71.697C51.6954 71.5716 46.9203 69.9679 44.0496 67.6617L41.4051 70.3062V77.8416C41.4051 78.5115 40.8621 79.0545 40.1922 79.0545C39.5223 79.0545 38.9793 78.5115 38.9793 77.8416V70.6242L36.0168 67.6617C33.1461 69.9679 28.371 71.5716 23.2687 71.697C17.569 71.8371 11.2244 70.1422 6.33806 65.2559C5.85877 64.7766 5.66037 64.1774 5.76107 63.5572C5.83402 63.1079 6.06436 62.7169 6.17597 62.5275L6.19485 62.4954L6.20023 62.4862C6.25883 62.386 6.29836 62.3184 6.33077 62.2566C6.23944 62.1664 6.07858 62.0337 5.8089 61.851C5.62546 61.7267 5.42189 61.5986 5.19242 61.4553L5.12379 61.4125C4.91866 61.2845 4.69521 61.145 4.47439 61.0003C3.57904 60.4132 2.24618 59.4565 1.96311 57.9105C1.8361 57.2168 1.89995 56.5928 2.16169 56.0469C2.38709 55.5768 2.71487 55.2614 2.96915 55.0537L2.94468 55.0398C2.85393 54.9884 2.74281 54.9255 2.5956 54.8376C1.92408 54.4366 0.992912 53.7514 0.795317 52.2804C0.69679 51.547 0.847046 50.9131 1.17932 50.3856C1.48395 49.902 1.90009 49.5792 2.1798 49.374C2.28694 49.2953 2.37203 49.2344 2.44132 49.1847C2.47119 49.1633 2.49812 49.144 2.52262 49.1263C0.674706 45.9463 0.0377286 42.2701 0.0332272 39.1862C0.0308261 37.5412 0.207963 36.0263 0.498464 34.7976C0.643623 34.1836 0.821469 33.6224 1.02962 33.1434C1.23053 32.681 1.49167 32.22 1.83858 31.8731C2.18549 31.5262 2.6465 31.265 3.10888 31.0641C3.5879 30.856 4.14911 30.6781 4.76309 30.533C5.99184 30.2425 7.50672 30.0654 9.1517 30.0678C12.2357 30.0723 15.9119 30.7093 19.0919 32.5572C19.1095 32.5328 19.1287 32.5061 19.1499 32.4764L19.1509 32.4751C19.2004 32.4059 19.2612 32.3211 19.3395 32.2144C19.5295 31.9555 19.8201 31.5798 20.2457 31.2838C19.9368 29.8496 19.7686 28.3483 19.7686 26.7869C19.7686 26.1091 20.052 25.5451 20.5618 25.1778C20.9311 24.9116 21.3704 24.7981 21.5833 24.743L21.6193 24.7337L21.6297 24.731C21.7419 24.7016 21.8177 24.6817 21.8842 24.661C21.8835 24.5326 21.8636 24.325 21.802 24.0051C21.7602 23.7876 21.7069 23.553 21.6459 23.2894L21.6277 23.2104C21.5731 22.9748 21.5138 22.7185 21.46 22.4599C21.242 21.4117 20.976 19.7927 21.8691 18.4994C22.2697 17.9191 22.7561 17.523 23.3272 17.322C23.819 17.149 24.2738 17.1578 24.6005 17.1907L24.593 17.1636C24.5652 17.0631 24.5311 16.9399 24.4892 16.7738C24.2979 16.0153 24.1239 14.8724 25.0243 13.6926C25.4733 13.1043 26.0278 12.7623 26.6357 12.6243C27.1931 12.4977 27.7156 12.5637 28.0585 12.6164C28.1897 12.6365 28.2929 12.6536 28.377 12.6674L28.3779 12.6676ZM21.3862 33.5295C21.6119 33.6054 21.8622 33.6158 22.1084 33.5447C22.2073 33.5161 22.2998 33.476 22.3848 33.4263C22.4969 33.5253 22.5976 33.6683 22.7204 33.874C22.7451 33.9153 22.7765 33.9704 22.8129 34.0342C22.9298 34.2394 23.0984 34.5352 23.2624 34.7576C23.5175 35.1034 23.9136 35.5095 24.5392 35.6943C24.8469 35.7851 25.1848 35.8063 25.5271 35.7122C25.8591 35.621 26.1053 35.4461 26.2757 35.2908C26.4386 35.1422 26.5649 34.9807 26.6471 34.8718C26.6997 34.8022 26.732 34.7579 26.7597 34.7199C26.792 34.6756 26.8181 34.6398 26.8629 34.5824C26.9833 34.4281 27.037 34.3953 27.0612 34.3837C27.0685 34.38 27.1601 34.3328 27.4391 34.3839C27.852 34.4595 28.3076 34.8789 28.9371 35.8391C29.0662 36.0359 29.1908 36.2357 29.3209 36.4441L29.3633 36.5119C29.5051 36.7391 29.6554 36.9784 29.8082 37.2041C30.092 37.623 30.4803 38.1449 30.9924 38.4811C31.5681 38.859 32.1682 38.9044 32.6935 38.7725C33.0965 38.6714 33.4537 38.4603 33.6425 38.3489L33.6857 38.3234L33.7189 38.3041C36.4557 41.1285 38.0338 44.4939 38.7585 47.9246C38.7702 47.9802 38.7856 48.0341 38.8044 48.0862C38.4836 49.8454 38.3621 51.603 38.4039 53.3032C38.4371 54.6534 38.5738 55.9807 38.7996 57.2559C38.2344 60.1375 37.1924 62.5668 35.9887 64.203L32.9361 61.1504L32.3487 49.289C32.3155 48.62 31.7463 48.1045 31.0772 48.1376C30.4082 48.1707 29.8926 48.74 29.9258 49.409L30.3807 58.595L22.4776 50.6918L22.0613 42.2875C22.0282 41.6185 21.459 41.1029 20.7899 41.1361C20.1209 41.1692 19.6053 41.7384 19.6385 42.4075L19.9222 48.1365L11.031 39.2452C10.5573 38.7716 9.7893 38.7716 9.31562 39.2452C8.84195 39.7189 8.84195 40.4869 9.31562 40.9606L14.3166 45.9615L8.12509 45.6549C7.45603 45.6218 6.88679 46.1373 6.85365 46.8063C6.82052 47.4754 7.33604 48.0446 8.00509 48.0778L16.872 48.5169L20.4205 52.0654C20.4239 52.0689 20.4272 52.0723 20.4306 52.0757C20.4345 52.0795 20.4384 52.0834 20.4423 52.0872L24.7751 56.4201L15.1266 55.9422C14.4576 55.9091 13.8883 56.4246 13.8552 57.0937C13.8221 57.7627 14.3376 58.332 15.0066 58.3651L27.3305 58.9754L30.8789 62.5238C30.8861 62.5313 30.8935 62.5386 30.901 62.5459L34.2886 65.9335C31.9245 67.7271 27.8343 69.1582 23.2091 69.2719C18.097 69.3975 12.5538 67.9044 8.2695 63.7533L8.28879 63.7202L8.31426 63.6769C8.42575 63.4882 8.63681 63.1309 8.73793 62.728C8.86977 62.2026 8.82445 61.6026 8.44652 61.0269C8.11036 60.5148 7.58845 60.1265 7.16947 59.8427C6.94385 59.6898 6.70449 59.5396 6.47731 59.3977L6.40952 59.3554L6.40824 59.3546L6.40751 59.3541C6.19978 59.2245 6.00066 59.1002 5.80448 58.9716C4.84427 58.342 4.42488 57.8864 4.34928 57.4736C4.2982 57.1946 4.34518 57.1033 4.34891 57.096C4.36051 57.0719 4.39355 57.0178 4.54783 56.8973C4.60506 56.8526 4.64067 56.8267 4.68491 56.7944C4.72282 56.7668 4.76759 56.7342 4.83726 56.6816C4.94614 56.5993 5.10765 56.473 5.25617 56.3101C5.41153 56.1397 5.58642 55.8935 5.67761 55.5616C5.77166 55.2192 5.75052 54.8814 5.65966 54.5737C5.47492 53.948 5.06881 53.552 4.72298 53.2969C4.50067 53.1329 4.20494 52.9643 3.99981 52.8474L3.99902 52.847L3.99678 52.8457C3.93413 52.81 3.88008 52.7792 3.83937 52.7549C3.40519 52.4956 3.25027 52.335 3.19956 51.9575C3.17434 51.7697 3.21208 51.7099 3.23099 51.68L3.23188 51.6786C3.2781 51.6052 3.37402 51.5066 3.61501 51.3297C3.64456 51.308 3.68147 51.2818 3.7238 51.2518C3.92544 51.1088 4.25008 50.8784 4.48825 50.6315C4.84415 50.2624 5.17741 49.7047 5.10913 48.9476C5.09157 48.7529 5.02725 48.5654 4.92164 48.401C3.12273 45.6004 2.4634 42.1558 2.45906 39.1826C2.45691 37.7034 2.6173 36.379 2.85922 35.3557C2.98028 34.8437 3.11737 34.4257 3.25449 34.1102C3.39884 33.778 3.51329 33.629 3.5539 33.5884C3.59451 33.5478 3.74344 33.4334 4.07564 33.289C4.39119 33.1519 4.80917 33.0148 5.32121 32.8937C6.3445 32.6518 7.66894 32.4914 9.14815 32.4936C12.1213 32.498 15.5659 33.1573 18.3666 34.9562C18.531 35.0618 18.7185 35.1262 18.9131 35.1437C19.6702 35.212 20.2279 34.8787 20.597 34.5228C20.844 34.2847 21.0743 33.9601 21.2173 33.7584C21.2473 33.7161 21.2736 33.6791 21.2952 33.6496C21.3282 33.6048 21.3584 33.5649 21.3862 33.5295ZM22.6463 30.9057C22.3747 29.6877 22.2177 28.4145 22.1968 27.0902L22.2339 27.0804L22.2825 27.0678C22.4948 27.0132 22.8967 26.9098 23.2531 26.6964C23.7178 26.4181 24.11 25.9618 24.2499 25.2875C24.3743 24.6876 24.2798 24.0441 24.1842 23.5471C24.1328 23.2795 24.0698 23.004 24.0094 22.743L23.9914 22.6652C23.936 22.4259 23.8829 22.1963 23.835 21.9659C23.6012 20.8418 23.6268 20.2231 23.8653 19.8777C24.0264 19.6443 24.1242 19.613 24.132 19.6105C24.1573 19.6016 24.2189 19.5867 24.4131 19.6106C24.4855 19.6195 24.529 19.6264 24.5834 19.6349C24.6297 19.6422 24.6839 19.6507 24.7704 19.6627C24.9055 19.6816 25.109 19.7065 25.3292 19.6963C25.5596 19.6857 25.8573 19.6353 26.1565 19.465C26.4651 19.2894 26.689 19.0356 26.8424 18.7538C27.1542 18.1807 27.147 17.6135 27.0829 17.1886C27.0416 16.9154 26.9517 16.587 26.8893 16.3593C26.8699 16.2884 26.8531 16.2272 26.8413 16.1805C26.7177 15.6902 26.7217 15.4671 26.9528 15.1643C27.0677 15.0137 27.1367 14.9981 27.1712 14.9903L27.1728 14.9899C27.2574 14.9707 27.395 14.9688 27.6904 15.0141C27.7266 15.0197 27.7712 15.0273 27.8223 15.0359C28.066 15.0774 28.4586 15.1441 28.8016 15.1379C29.3143 15.1286 29.9443 14.9698 30.4313 14.3862C30.5566 14.2362 30.6437 14.0581 30.6853 13.8672C31.3936 10.6148 33.3631 7.71283 35.4623 5.60743C36.5068 4.55993 37.5567 3.73682 38.4513 3.18431C38.899 2.90784 39.2915 2.70922 39.6116 2.58305C39.9485 2.45022 40.1348 2.42584 40.1922 2.42584C40.2496 2.42584 40.4359 2.45022 40.7728 2.58305C41.0929 2.70922 41.4854 2.90784 41.9331 3.1843C42.8277 3.7368 43.8776 4.5599 44.9221 5.60738C47.0213 7.71276 48.9908 10.6147 49.6992 13.8671C49.7407 14.058 49.8278 14.2361 49.9531 14.3861C50.4401 14.9697 51.0701 15.1285 51.5828 15.1378C51.9258 15.144 52.3182 15.0773 52.562 15.0359C52.6131 15.0272 52.6577 15.0196 52.694 15.014C52.9894 14.9687 53.127 14.9706 53.2116 14.9898L53.2132 14.9902C53.2477 14.998 53.3167 15.0136 53.4316 15.1642C53.6627 15.467 53.6667 15.6901 53.5431 16.1804C53.5313 16.227 53.5146 16.288 53.4953 16.3587C53.4329 16.5864 53.3428 16.9153 53.3015 17.1885C53.2374 17.6134 53.2302 18.1806 53.542 18.7537C53.6954 19.0355 53.9193 19.2893 54.2279 19.4649C54.5271 19.6352 54.8248 19.6856 55.0552 19.6962C55.2754 19.7064 55.4789 19.6815 55.614 19.6626C55.7005 19.6506 55.7547 19.6421 55.801 19.6348C55.8554 19.6263 55.8989 19.6194 55.9713 19.6105C56.1655 19.5866 56.2267 19.6014 56.252 19.6103C56.2598 19.6127 56.358 19.6442 56.5191 19.8776C56.7576 20.223 56.7832 20.8417 56.5494 21.9658C56.5015 22.1961 56.4484 22.4253 56.3931 22.6645L56.375 22.7429C56.3146 23.0039 56.2516 23.2794 56.2002 23.547C56.1046 24.044 56.0101 24.6875 56.1345 25.2874C56.2744 25.9617 56.6666 26.418 57.1313 26.6963C57.4877 26.9097 57.8896 27.0131 58.1019 27.0677L58.1505 27.0803L58.1876 27.0901C58.1671 28.3906 58.0153 29.6417 57.7527 30.8396C56.3283 31.0563 55.6581 31.9691 55.2633 32.6302C55.1754 32.7773 55.1125 32.8884 55.0611 32.9791L55.0472 33.0037C54.8394 32.7495 54.5241 32.4217 54.054 32.1963C53.508 31.9345 52.884 31.8707 52.1904 31.9977C50.6444 32.2808 49.6876 33.6136 49.1006 34.509C48.9558 34.7299 48.8165 34.953 48.6885 35.1582L48.6455 35.227C48.5023 35.4565 48.3741 35.66 48.2498 35.8435C48.0671 36.1132 47.9345 36.274 47.8442 36.3654C47.7824 36.333 47.7149 36.2934 47.6147 36.2348L47.6055 36.2294L47.5734 36.2106C47.3839 36.099 46.993 35.8686 46.5437 35.7957C45.9235 35.695 45.3242 35.8934 44.8449 36.3726C43.4097 37.8079 42.2498 39.3689 41.3309 41.0024V37.1898L49.6137 28.0439C50.0633 27.5474 50.0253 26.7803 49.5288 26.3307C49.0323 25.881 48.2652 25.919 47.8156 26.4155L41.3309 33.5759V27.4484C41.3311 27.4381 41.3311 27.4278 41.3309 27.4176V22.3992L47.2902 15.8188C47.7399 15.3223 47.7019 14.5553 47.2054 14.1056C46.7089 13.6559 45.9418 13.6939 45.4922 14.1904L41.3309 18.7853V11.7129C41.3309 11.043 40.7879 10.5 40.118 10.5C39.4481 10.5 38.9051 11.043 38.9051 11.7129V24.287L35.0547 20.0354C34.6051 19.5389 33.838 19.5009 33.3415 19.9505C32.845 20.4002 32.807 21.1672 33.2566 21.6638L38.9051 27.9008V41.3106C37.9601 39.5644 36.7456 37.8968 35.2215 36.3726C34.7422 35.8934 34.1429 35.695 33.5227 35.7957C33.0734 35.8686 32.6825 36.099 32.493 36.2106L32.4609 36.2294L32.4517 36.2348C32.3515 36.2934 32.284 36.333 32.2222 36.3654C32.132 36.274 31.9993 36.1132 31.8166 35.8435C31.6923 35.66 31.5642 35.4565 31.4209 35.227L31.3779 35.1582C31.2499 34.953 31.1106 34.7299 30.9658 34.509C30.3788 33.6136 29.422 32.2808 27.876 31.9977C27.1824 31.8707 26.5584 31.9345 26.0124 32.1963C25.5423 32.4217 25.227 32.7495 25.0192 33.0037L25.0054 32.9793C24.954 32.8885 24.891 32.7774 24.8031 32.6302C24.4404 32.0228 23.8452 31.203 22.6463 30.9057ZM55.6918 17.6472C55.6921 17.6491 55.6921 17.6502 55.6921 17.6502L55.6918 17.6472ZM40.0331 61.7278C39.4049 63.3492 38.6195 64.7851 37.72 65.9342L40.0332 68.2475L42.3464 65.9343C41.4503 64.7896 40.6637 63.3558 40.0331 61.7278ZM3.35716 55.3115C3.35854 55.313 3.35906 55.3138 3.35906 55.3138L3.35716 55.3115ZM40.829 53.2436C40.9408 57.7915 42.3263 61.822 44.0777 64.203L47.1303 61.1504L47.7178 49.289C47.7509 48.62 48.3201 48.1045 48.9892 48.1376C49.6582 48.1707 50.1738 48.74 50.1406 49.409L49.6857 58.595L57.5888 50.6918L58.0051 42.2875C58.0382 41.6185 58.6074 41.1029 59.2765 41.1361C59.9456 41.1692 60.4611 41.7384 60.4279 42.4075L60.1442 48.1365L69.0355 39.2452C69.5091 38.7716 70.2771 38.7716 70.7508 39.2452C71.2245 39.7189 71.2245 40.4869 70.7508 40.9606L65.7498 45.9615L71.9413 45.6549C72.6104 45.6218 73.1796 46.1373 73.2128 46.8063C73.2459 47.4754 72.7304 48.0446 72.0613 48.0778L63.1944 48.5169L59.6459 52.0654L59.6323 52.0791L59.6241 52.0872L55.2913 56.4201L64.9398 55.9422C65.6088 55.9091 66.1781 56.4246 66.2112 57.0937C66.2444 57.7627 65.7288 58.332 65.0598 58.3651L52.7359 58.9754L49.1876 62.5238C49.1803 62.5313 49.1729 62.5386 49.1654 62.5459L45.7778 65.9335C48.1419 67.7271 52.2321 69.1582 56.8573 69.2719C61.9694 69.3975 67.5126 67.9044 71.7969 63.7533L71.7776 63.7202L71.7522 63.6769C71.6407 63.4882 71.4296 63.1309 71.3285 62.728C71.1966 62.2026 71.242 61.6026 71.6199 61.0269C71.956 60.5148 72.478 60.1265 72.8969 59.8427C73.1226 59.6898 73.3619 59.5396 73.5891 59.3977L73.6569 59.3554C73.8653 59.2253 74.0651 59.1006 74.2619 58.9716C75.2221 58.342 75.6415 57.8864 75.7171 57.4736C75.7682 57.1946 75.7212 57.1033 75.7175 57.096C75.7059 57.0719 75.6729 57.0178 75.5186 56.8973C75.4613 56.8526 75.4257 56.8267 75.3815 56.7944C75.3436 56.7668 75.2988 56.7342 75.2291 56.6816C75.1203 56.5993 74.9588 56.473 74.8102 56.3101C74.6549 56.1397 74.48 55.8935 74.3888 55.5616C74.2947 55.2192 74.3159 54.8814 74.4067 54.5737C74.5915 53.948 74.9976 53.552 75.3434 53.2969C75.5657 53.133 75.8613 52.9645 76.0664 52.8475C76.1303 52.8111 76.1857 52.7795 76.227 52.7549C76.6612 52.4956 76.8161 52.335 76.8668 51.9575C76.8921 51.7697 76.8543 51.7099 76.8354 51.68L76.8345 51.6786C76.7883 51.6052 76.6924 51.5066 76.4514 51.3297C76.4359 51.3184 76.4184 51.3058 76.3992 51.292L76.3426 51.2518C76.141 51.1088 75.8163 50.8784 75.5782 50.6315C75.2223 50.2624 74.889 49.7047 74.9573 48.9476C74.9748 48.7529 75.0392 48.5654 75.1448 48.401C76.9437 45.6004 77.603 42.1558 77.6073 39.1826C77.6095 37.7034 77.4491 36.379 77.2072 35.3557C77.0861 34.8437 76.949 34.4257 76.8119 34.1102C76.6676 33.778 76.5531 33.629 76.5125 33.5884C76.4719 33.5478 76.323 33.4334 75.9908 33.289C75.6752 33.1519 75.2572 33.0148 74.7452 32.8937C73.7219 32.6518 72.3975 32.4914 70.9183 32.4936C67.9451 32.498 64.5005 33.1573 61.6998 34.9562C61.5354 35.0618 61.3479 35.1262 61.1533 35.1437C60.3962 35.212 59.8385 34.8787 59.4694 34.5228C59.2224 34.2847 58.9921 33.96 58.8491 33.7584L58.82 33.7175L58.7902 33.6758L58.7712 33.6496C58.5943 33.4086 58.4957 33.3127 58.4223 33.2665L58.4209 33.2656C58.3909 33.2467 58.3311 33.2089 58.1434 33.2342C57.7659 33.2849 57.6053 33.4398 57.346 33.874C57.3215 33.915 57.2903 33.9697 57.2542 34.0331L57.2535 34.0342C57.1366 34.2394 56.968 34.5352 56.804 34.7576C56.5489 35.1034 56.1528 35.5095 55.5272 35.6943C55.2195 35.7851 54.8816 35.8063 54.5393 35.7122C54.2073 35.621 53.9612 35.4461 53.7907 35.2908C53.6278 35.1422 53.5015 34.9807 53.4193 34.8718C53.3668 34.8023 53.3345 34.758 53.3069 34.7202C53.2745 34.6757 53.2484 34.6398 53.2036 34.5824C53.0831 34.4281 53.0294 34.3953 53.0052 34.3837C52.9979 34.38 52.9063 34.3328 52.6273 34.3839C52.2144 34.4595 51.7588 34.8789 51.1293 35.8391C51.0003 36.0359 50.8756 36.2357 50.7455 36.4441L50.7032 36.5119C50.5613 36.7391 50.411 36.9784 50.2582 37.2041C49.9744 37.623 49.5861 38.1449 49.074 38.4811C48.4983 38.859 47.8982 38.9044 47.3729 38.7725C46.9699 38.6714 46.6127 38.4603 46.4239 38.3489L46.3807 38.3234L46.3475 38.3041C42.1964 42.5884 40.7033 48.1315 40.829 53.2436ZM54.7871 33.3937C54.7871 33.3937 54.7879 33.3929 54.7894 33.3917L54.7871 33.3937Z" fill="#0A6D90"/>
</svg>
