<svg width="25" height="25" viewBox="0 0 25 25" fill="none" xmlns="http://www.w3.org/2000/svg">
<path opacity="0.9" fill-rule="evenodd" clip-rule="evenodd" d="M12.5 1.66667C6.51692 1.66667 1.66667 6.51691 1.66667 12.5C1.66667 18.4831 6.51691 23.3333 12.5 23.3333C18.4831 23.3333 23.3333 18.4831 23.3333 12.5C23.3333 6.51692 18.4831 1.66667 12.5 1.66667ZM0 12.5C5.96048e-07 5.59644 5.59644 -5.96046e-07 12.5 0C19.4036 5.96046e-07 25 5.59644 25 12.5C25 19.4036 19.4036 25 12.5 25C5.59644 25 -5.96045e-07 19.4036 0 12.5ZM12.5 6.65C12.9602 6.65 13.3333 7.0231 13.3333 7.48333V7.5C13.3333 7.96024 12.9602 8.33333 12.5 8.33333C12.0398 8.33333 11.6667 7.96024 11.6667 7.5V7.48333C11.6667 7.0231 12.0398 6.65 12.5 6.65ZM13.3333 9.98333V14.9833H15C15.4602 14.9833 15.8333 15.3564 15.8333 15.8167C15.8333 16.2769 15.4602 16.65 15 16.65H10C9.53976 16.65 9.16667 16.2769 9.16667 15.8167C9.16667 15.3564 9.53976 14.9833 10 14.9833H11.6667V11.65H10C9.53976 11.65 9.16667 11.2769 9.16667 10.8167C9.16667 10.3564 9.53976 9.98333 10 9.98333L13.3333 9.98333Z" fill="#2D2D2D"/>
</svg>
