<svg width="161" height="78" viewBox="0 0 161 78" fill="none" xmlns="http://www.w3.org/2000/svg">
<g opacity="0.2">
<path fill-rule="evenodd" clip-rule="evenodd" d="M44.1885 10.9198C43.8665 10.0238 43.7055 9.09288 43.7055 8.12693C43.7055 7.16099 43.8665 6.23005 44.1885 5.3341C44.5245 4.43816 45.0004 3.6332 45.6164 2.91925C46.2324 2.19129 47.0373 1.61032 48.0312 1.17635C49.0252 0.742377 50.1451 0.525391 51.391 0.525391C52.637 0.525391 53.7569 0.742377 54.7508 1.17635C55.7448 1.61032 56.5497 2.19129 57.1657 2.91925C57.7817 3.6332 58.2506 4.43816 58.5726 5.3341C58.9086 6.23005 59.0766 7.16099 59.0766 8.12693C59.0766 9.09288 58.9086 10.0238 58.5726 10.9198C58.2506 11.8157 57.7817 12.6277 57.1657 13.3556C56.5497 14.0696 55.7448 14.6435 54.7508 15.0775C53.7569 15.5115 52.637 15.7285 51.391 15.7285C50.1451 15.7285 49.0252 15.5115 48.0312 15.0775C47.0373 14.6435 46.2324 14.0696 45.6164 13.3556C45.0004 12.6277 44.5245 11.8157 44.1885 10.9198ZM56.9137 10.3318C57.1657 9.63184 57.2917 8.89689 57.2917 8.12693C57.2917 7.35698 57.1657 6.62203 56.9137 5.92207C56.6757 5.22211 56.3187 4.59215 55.8428 4.03218C55.3808 3.47221 54.7648 3.03124 53.9949 2.70926C53.2249 2.37328 52.357 2.20529 51.391 2.20529C50.4251 2.20529 49.5572 2.37328 48.7872 2.70926C48.0173 3.03124 47.3943 3.47221 46.9183 4.03218C46.4563 4.59215 46.0994 5.22211 45.8474 5.92207C45.6094 6.62203 45.4904 7.35698 45.4904 8.12693C45.4904 8.89689 45.6094 9.63184 45.8474 10.3318C46.0994 11.0318 46.4563 11.6617 46.9183 12.2217C47.3943 12.7817 48.0173 13.2296 48.7872 13.5656C49.5572 13.8876 50.4251 14.0486 51.391 14.0486C52.357 14.0486 53.2249 13.8876 53.9949 13.5656C54.7648 13.2296 55.3808 12.7817 55.8428 12.2217C56.3187 11.6617 56.6757 11.0318 56.9137 10.3318Z" fill="#21495D"/>
<path d="M48.1112 21.3074C48.5751 21.3074 48.9512 21.6835 48.9512 22.1474V45.988L50.9403 44.8395C50.9617 44.8268 50.9837 44.815 51.006 44.8042C51.1233 44.7473 51.2482 44.7202 51.3717 44.7203C51.4952 44.7202 51.6202 44.7473 51.7374 44.8042C51.7598 44.815 51.7817 44.8268 51.8031 44.8395L53.9638 46.087V22.1474C53.9638 21.6835 54.3398 21.3074 54.8037 21.3074C55.2676 21.3074 55.6437 21.6835 55.6437 22.1474V47.0569L73.6444 57.4496C74.0462 57.6816 74.1838 58.1953 73.9519 58.597C73.7199 58.9988 73.2062 59.1364 72.8045 58.9045L51.3717 46.5303L29.939 58.9045C29.5372 59.1364 29.0235 58.9988 28.7916 58.597C28.5596 58.1953 28.6973 57.6816 29.099 57.4496L47.2713 46.9579V22.1474C47.2713 21.6835 47.6473 21.3074 48.1112 21.3074Z" fill="#21495D"/>
<path fill-rule="evenodd" clip-rule="evenodd" d="M10.8723 68.505C10.5503 67.609 10.3893 66.6781 10.3893 65.7122C10.3893 64.7462 10.5503 63.8153 10.8723 62.9193C11.2083 62.0234 11.6842 61.2184 12.3002 60.5045C12.9162 59.7765 13.7211 59.1955 14.7151 58.7616C15.709 58.3276 16.8289 58.1106 18.0749 58.1106C19.3208 58.1106 20.4407 58.3276 21.4347 58.7616C22.4286 59.1955 23.2335 59.7765 23.8495 60.5045C24.4655 61.2184 24.9344 62.0234 25.2564 62.9193C25.5924 63.8153 25.7604 64.7462 25.7604 65.7122C25.7604 66.6781 25.5924 67.609 25.2564 68.505C24.9344 69.4009 24.4655 70.2129 23.8495 70.9408C23.2335 71.6548 22.4286 72.2288 21.4347 72.6627C20.4407 73.0967 19.3208 73.3137 18.0749 73.3137C16.8289 73.3137 15.709 73.0967 14.7151 72.6627C13.7211 72.2288 12.9162 71.6548 12.3002 70.9408C11.6842 70.2129 11.2083 69.4009 10.8723 68.505ZM23.5975 67.917C23.8495 67.2171 23.9755 66.4821 23.9755 65.7122C23.9755 64.9422 23.8495 64.2072 23.5975 63.5073C23.3595 62.8073 23.0026 62.1774 22.5266 61.6174C22.0646 61.0574 21.4487 60.6165 20.6787 60.2945C19.9087 59.9585 19.0408 59.7905 18.0749 59.7905C17.1089 59.7905 16.241 59.9585 15.471 60.2945C14.7011 60.6165 14.0781 61.0574 13.6021 61.6174C13.1402 62.1774 12.7832 62.8073 12.5312 63.5073C12.2932 64.2072 12.1742 64.9422 12.1742 65.7122C12.1742 66.4821 12.2932 67.2171 12.5312 67.917C12.7832 68.617 13.1402 69.2469 13.6021 69.8069C14.0781 70.3669 14.7011 70.8148 15.471 71.1508C16.241 71.4728 17.1089 71.6338 18.0749 71.6338C19.0408 71.6338 19.9087 71.4728 20.6787 71.1508C21.4487 70.8148 22.0646 70.3669 22.5266 69.8069C23.0026 69.2469 23.3595 68.617 23.5975 67.917Z" fill="#21495D"/>
<path d="M7.49655 58.4397H0V60.0356H7.49655V58.4397Z" fill="#21495D"/>
<path d="M95.7196 58.4397H103.216V60.0356H95.7196V58.4397Z" fill="#21495D"/>
<path fill-rule="evenodd" clip-rule="evenodd" d="M76.745 65.7122C76.745 66.6781 76.906 67.609 77.228 68.505C77.564 69.4009 78.04 70.2129 78.6559 70.9408C79.2719 71.6548 80.0768 72.2288 81.0708 72.6627C82.0647 73.0967 83.1846 73.3137 84.4306 73.3137C85.6765 73.3137 86.7964 73.0967 87.7904 72.6627C88.7843 72.2288 89.5893 71.6548 90.2052 70.9408C90.8212 70.2129 91.2902 69.4009 91.6121 68.505C91.9481 67.609 92.1161 66.6781 92.1161 65.7122C92.1161 64.7462 91.9481 63.8153 91.6121 62.9193C91.2902 62.0234 90.8212 61.2184 90.2052 60.5045C89.5893 59.7765 88.7843 59.1955 87.7904 58.7616C86.7964 58.3276 85.6765 58.1106 84.4306 58.1106C83.1846 58.1106 82.0647 58.3276 81.0708 58.7616C80.0768 59.1955 79.2719 59.7765 78.6559 60.5045C78.04 61.2184 77.564 62.0234 77.228 62.9193C76.906 63.8153 76.745 64.7462 76.745 65.7122ZM90.3312 65.7122C90.3312 66.4821 90.2052 67.2171 89.9532 67.917C89.7153 68.617 89.3583 69.2469 88.8823 69.8069C88.4203 70.3669 87.8044 70.8148 87.0344 71.1508C86.2645 71.4728 85.3965 71.6338 84.4306 71.6338C83.4646 71.6338 82.5967 71.4728 81.8267 71.1508C81.0568 70.8148 80.4338 70.3669 79.9578 69.8069C79.4959 69.2469 79.1389 68.617 78.8869 67.917C78.6489 67.2171 78.5299 66.4821 78.5299 65.7122C78.5299 64.9422 78.6489 64.2072 78.8869 63.5073C79.1389 62.8073 79.4959 62.1774 79.9578 61.6174C80.4338 61.0574 81.0568 60.6165 81.8267 60.2945C82.5967 59.9585 83.4646 59.7905 84.4306 59.7905C85.3965 59.7905 86.2645 59.9585 87.0344 60.2945C87.8044 60.6165 88.4203 61.0574 88.8823 61.6174C89.3583 62.1774 89.7153 62.8073 89.9532 63.5073C90.2052 64.2072 90.3312 64.9422 90.3312 65.7122Z" fill="#21495D"/>
<path d="M128.622 57.9042H130.134V72.6033H128.37V61.243L123.099 69.1385H122.007L116.737 61.243V72.6033H114.973V57.9042H116.485L122.553 66.9756L128.622 57.9042Z" fill="#21495D"/>
<path fill-rule="evenodd" clip-rule="evenodd" d="M134.134 71.3434C133.182 70.3354 132.706 69.0755 132.706 67.5636C132.706 66.0517 133.182 64.7918 134.134 63.7838C135.1 62.7759 136.304 62.2719 137.746 62.2719C139.328 62.2719 140.686 62.9159 141.82 64.2038V62.5239H143.332V72.6033C143.332 74.2272 142.8 75.4451 141.736 76.2571C140.672 77.069 139.37 77.475 137.83 77.475C136.332 77.475 134.967 77.16 133.735 76.5301V74.8922C134.953 75.5781 136.248 75.9211 137.62 75.9211C138.81 75.9211 139.783 75.6551 140.539 75.1231C141.295 74.6052 141.666 73.7652 141.652 72.6033V71.0494C140.672 72.2533 139.37 72.8553 137.746 72.8553C136.304 72.8553 135.1 72.3513 134.134 71.3434ZM141.652 66.3037C141.344 65.6037 140.861 65.0158 140.203 64.5398C139.545 64.0638 138.789 63.8258 137.935 63.8258C136.927 63.8258 136.08 64.1688 135.394 64.8548C134.722 65.5407 134.386 66.4437 134.386 67.5636C134.386 68.6835 134.722 69.5865 135.394 70.2724C136.08 70.9584 136.927 71.3014 137.935 71.3014C138.789 71.3014 139.545 71.0844 140.203 70.6504C140.861 70.2024 141.344 69.6635 141.652 69.0335V66.3037Z" fill="#21495D"/>
<path d="M149.327 52.8859C148.16 52.8859 147.106 53.2079 146.163 53.8518V55.3917C147.143 54.6824 148.151 54.3278 149.187 54.3278C149.784 54.3278 150.246 54.4351 150.573 54.6498C150.909 54.8644 151.077 55.1771 151.077 55.5877C151.077 56.0357 150.89 56.4417 150.517 56.8056C150.293 57.011 149.789 57.3423 149.005 57.7996L148.893 57.8556C148.865 57.8742 148.828 57.9022 148.781 57.9396C148.258 58.2476 147.894 58.4762 147.689 58.6255C147.484 58.7655 147.194 59.0082 146.821 59.3535C146.457 59.6895 146.2 60.0628 146.051 60.4734C145.911 60.8747 145.841 61.3367 145.841 61.8593V62.5873H152.743V61.1454L147.633 61.1594C147.633 61.0661 147.647 60.9727 147.675 60.8794C147.703 60.7861 147.731 60.7021 147.759 60.6274C147.796 60.5527 147.852 60.4734 147.927 60.3894C148.002 60.2961 148.067 60.2214 148.123 60.1654C148.179 60.1001 148.263 60.0254 148.375 59.9415C148.496 59.8481 148.59 59.7781 148.655 59.7315L148.991 59.5215C149.14 59.4281 149.248 59.3628 149.313 59.3255C149.388 59.2788 149.509 59.2042 149.677 59.1015L149.835 59.0099C149.929 58.9559 149.997 58.9164 150.041 58.8915C150.853 58.4062 151.492 57.9116 151.959 57.4076C152.435 56.8943 152.673 56.2783 152.673 55.5597C152.673 54.7011 152.365 54.0431 151.749 53.5858C151.133 53.1192 150.326 52.8859 149.327 52.8859Z" fill="#21495D"/>
<path d="M160.372 57.0156H157.852V54.4958H156.508V57.0156H153.988V58.3595H156.508V60.8794H157.852V58.3595H160.372V57.0156Z" fill="#21495D"/>
</g>
</svg>
