<svg width="18" height="18" viewBox="0 0 18 18" fill="none" xmlns="http://www.w3.org/2000/svg">
<path d="M12.3346 0.993652H5.66544C2.95505 0.993652 0.75 3.19871 0.75 5.90909V12.5782C0.75 15.2886 2.95505 17.4937 5.66544 17.4937H12.3346C15.0449 17.4937 17.25 15.2886 17.25 12.5782V5.90909C17.25 3.19871 15.0449 0.993652 12.3346 0.993652ZM15.5901 12.5782C15.5901 14.3762 14.1325 15.8338 12.3346 15.8338H5.66544C3.86747 15.8338 2.4099 14.3762 2.4099 12.5782V5.90909C2.4099 4.11109 3.86747 2.65355 5.66544 2.65355H12.3346C14.1325 2.65355 15.5901 4.11109 15.5901 5.90909V12.5782Z" fill="white"/>
<path d="M8.99991 4.97607C6.64681 4.97607 4.73242 6.89047 4.73242 9.24353C4.73242 11.5966 6.64681 13.511 8.99991 13.511C11.353 13.511 13.2674 11.5966 13.2674 9.24353C13.2674 6.89044 11.353 4.97607 8.99991 4.97607ZM8.99991 11.8512C7.55977 11.8512 6.39232 10.6837 6.39232 9.24356C6.39232 7.80342 7.5598 6.63597 8.99991 6.63597C10.4401 6.63597 11.6075 7.80342 11.6075 9.24356C11.6075 10.6837 10.44 11.8512 8.99991 11.8512Z" fill="white"/>
<path d="M13.2755 6.03075C13.8403 6.03075 14.2981 5.57293 14.2981 5.00817C14.2981 4.44342 13.8403 3.9856 13.2755 3.9856C12.7108 3.9856 12.2529 4.44342 12.2529 5.00817C12.2529 5.57293 12.7108 6.03075 13.2755 6.03075Z" fill="white"/>
</svg>
