<svg width="48" height="60" viewBox="0 0 48 60" fill="none" xmlns="http://www.w3.org/2000/svg">
<path d="M23.0818 0.0152711C11.1612 0.43354 1.25801 9.73388 0.113924 21.6053C-0.119815 23.9796 0.0155081 26.2801 0.433777 28.4822C0.433777 28.4822 0.470683 28.7405 0.593704 29.2326C0.962765 30.8811 1.51636 32.4803 2.20527 33.9812C4.60417 39.6647 10.1524 49.1742 22.602 59.5202C23.3648 60.1599 24.4843 60.1599 25.2593 59.5202C37.709 49.1865 43.2572 39.677 45.6684 33.9689C46.3696 32.468 46.9109 30.8811 47.2799 29.2203C47.3906 28.7405 47.4399 28.4699 47.4399 28.4699C47.7228 26.9936 47.8704 25.4805 47.8704 23.9304C47.8704 10.4228 36.6879 -0.464508 23.0818 0.0152711ZM23.9307 35.8388C17.509 35.8388 12.3052 30.635 12.3052 24.2134C12.3052 17.7917 17.509 12.588 23.9307 12.588C30.3523 12.588 35.5561 17.7917 35.5561 24.2134C35.5561 30.635 30.3523 35.8388 23.9307 35.8388Z" fill="#2D2D2D"/>
</svg>
