<svg width="20" height="30" viewBox="0 0 20 30" xmlns="http://www.w3.org/2000/svg">
<path d="M9.79989 0C5.93685 0 2.79528 3.29642 2.79528 7.34988C2.79528 11.4033 5.93685 14.6998 9.79989 14.6998C13.6629 14.6998 16.8045 11.4033 16.8045 7.34988C16.8045 3.29642 13.6629 0 9.79989 0ZM9.79989 11.0248C7.86837 11.0248 6.29758 9.37662 6.29758 7.34988C6.29758 5.32315 7.86837 3.67494 9.79989 3.67494C11.7314 3.67494 13.3022 5.32315 13.3022 7.34988C13.3022 9.37662 11.7314 11.0248 9.79989 11.0248Z" fill="white"/>
<path d="M19.088 14.4958C18.4033 13.7774 17.2966 13.7774 16.6119 14.4958C12.8574 18.4353 6.74588 18.4353 2.98966 14.4958C2.30496 13.7774 1.19823 13.7774 0.513526 14.4958C-0.171175 15.2143 -0.171175 16.3755 0.513526 17.0958C2.69196 19.3816 5.45353 20.6844 8.3009 21.0243L3.30837 26.263C2.62367 26.9814 2.62367 28.1427 3.30837 28.8612C3.99307 29.5796 5.0998 29.5796 5.7845 28.8612L9.79989 24.6478L13.8153 28.8612C14.1568 29.2195 14.6051 29.3995 15.0534 29.3995C15.5016 29.3995 15.9499 29.2195 16.2914 28.8612C16.9761 28.1427 16.9761 26.9814 16.2914 26.263L11.2989 21.0243C14.1463 20.6844 16.9078 19.3816 19.0863 17.0958C19.771 16.3774 19.771 15.2143 19.088 14.4958Z" fill="white"/>
</svg>
