<svg width="22" height="22" viewBox="0 0 22 22" fill="none" xmlns="http://www.w3.org/2000/svg">
<path d="M3.68758 21.7858L7.28389 18.1901L9.02711 19.9333C9.17758 20.0838 9.39607 20.1458 9.60437 20.0976C9.81262 20.0483 9.97999 19.8954 10.0474 19.6925L13.5344 9.23203C13.6084 9.01051 13.5507 8.76613 13.3857 8.60119C13.2214 8.43686 12.9764 8.37666 12.7549 8.45251L2.29439 11.9395C2.09152 12.007 1.93865 12.1743 1.8893 12.3825C1.84053 12.5902 1.90253 12.8087 2.05363 12.9598L3.79684 14.703L0.201153 18.2993C-0.0396061 18.54 -0.0396061 18.9301 0.201153 19.1709L2.81598 21.7857C3.05677 22.0266 3.44682 22.0266 3.68758 21.7858Z" fill="#2D2D2D"/>
<path d="M13.0468 5.8582C13.3875 5.8582 13.6632 5.58251 13.6632 5.24181V1.54351C13.6632 1.20281 13.3875 0.927124 13.0468 0.927124C12.7061 0.927124 12.4304 1.20281 12.4304 1.54351V5.24181C12.4304 5.58251 12.7061 5.8582 13.0468 5.8582Z" fill="#2D2D2D"/>
<path d="M16.0974 6.76112L18.7129 4.14568C18.9536 3.90492 18.9536 3.51483 18.7129 3.27407C18.4721 3.03331 18.082 3.03331 17.8413 3.27407L15.2259 5.88947C14.9851 6.13023 14.9851 6.52032 15.2259 6.76107C15.4666 7.00188 15.8567 7.00188 16.0974 6.76112Z" fill="#2D2D2D"/>
<path d="M18.7129 14.6062C18.9536 14.3654 18.9536 13.9753 18.7129 13.7346L16.0975 11.1192C15.8567 10.8784 15.4666 10.8784 15.2259 11.1192C14.9851 11.3599 14.9851 11.75 15.2259 11.9908L17.8413 14.6062C18.082 14.8469 18.4721 14.8469 18.7129 14.6062Z" fill="#2D2D2D"/>
<path d="M10.8678 6.76112C11.1086 6.52036 11.1086 6.13027 10.8678 5.88951L8.25243 3.27411C8.01167 3.03335 7.62159 3.03335 7.38083 3.27411C7.14007 3.51487 7.14007 3.90496 7.38083 4.14572L9.99622 6.76112C10.237 7.00188 10.627 7.00188 10.8678 6.76112Z" fill="#2D2D2D"/>
<path d="M16.7451 9.5565H20.4434C20.7841 9.5565 21.0598 9.28081 21.0598 8.94011C21.0598 8.59942 20.7841 8.32373 20.4434 8.32373H16.7451C16.4044 8.32373 16.1287 8.59942 16.1287 8.94011C16.1287 9.28081 16.4044 9.5565 16.7451 9.5565Z" fill="#2D2D2D"/>
</svg>
