<svg width="24" height="16" viewBox="0 0 24 16" fill="none" xmlns="http://www.w3.org/2000/svg">
<path fill-rule="evenodd" clip-rule="evenodd" d="M19.5898 3.67474L22.08 1.93311L20.9789 0.361542L17.8088 2.57868C16.0877 1.65274 14.1073 0.973934 12 0.973934C5.37258 0.973934 0 7.68815 0 7.68815C0 7.68815 1.79482 9.93117 4.58938 11.8243L1.77891 13.79L2.87995 15.3615L6.39308 12.9045C8.06651 13.7753 9.97466 14.4024 12 14.4024C18.6274 14.4024 24 7.68815 24 7.68815C24 7.68815 22.2817 5.5407 19.5898 3.67474ZM13.7601 5.41036C13.2734 5.03436 12.6628 4.81063 12 4.81063C10.4094 4.81063 9.12 6.09893 9.12 7.68815C9.12 7.99253 9.1673 8.28587 9.25496 8.56124L13.7601 5.41036ZM10.4153 10.0913L14.8026 7.02285C14.8532 7.2364 14.88 7.45915 14.88 7.68815C14.88 9.27736 13.5906 10.5657 12 10.5657C11.4146 10.5657 10.8699 10.3911 10.4153 10.0913Z" fill="#C4C4C4"/>
</svg>
