<svg width="20" height="20" viewBox="0 0 20 20" fill="none" xmlns="http://www.w3.org/2000/svg">
<path d="M9.1123 11.002C8.99837 11.3164 8.93685 11.7448 8.92773 12.2871H10.1924C10.1924 11.5944 10.3587 11.0635 10.6914 10.6943L11.4365 9.95605C12.1748 9.18132 12.5439 8.39518 12.5439 7.59766C12.5439 6.79102 12.3024 6.15755 11.8193 5.69727C11.3408 5.23242 10.6709 5 9.80957 5C8.98014 5 8.30566 5.22786 7.78613 5.68359C7.27116 6.13477 7.00911 6.72949 7 7.46777H8.26465C8.26465 7.05306 8.40592 6.72266 8.68848 6.47656C8.97103 6.23047 9.34473 6.10742 9.80957 6.10742C10.2881 6.10742 10.6527 6.24414 10.9033 6.51758C11.154 6.78646 11.2793 7.16016 11.2793 7.63867C11.2793 8.13542 11.0879 8.60026 10.7051 9.0332L9.80957 9.95605C9.45866 10.3389 9.22624 10.6875 9.1123 11.002Z" fill="#B5B5B5"/>
<path d="M9.05762 13.9414C8.93457 14.0781 8.87305 14.249 8.87305 14.4541C8.87305 14.6592 8.93457 14.8301 9.05762 14.9668C9.18522 15.099 9.37207 15.165 9.61816 15.165C9.86426 15.165 10.0511 15.099 10.1787 14.9668C10.3063 14.8301 10.3701 14.6592 10.3701 14.4541C10.3701 14.249 10.3063 14.0781 10.1787 13.9414C10.0511 13.8001 9.86426 13.7295 9.61816 13.7295C9.37207 13.7295 9.18522 13.8001 9.05762 13.9414Z" fill="#B5B5B5"/>
<path fill-rule="evenodd" clip-rule="evenodd" d="M20 10C20 15.5228 15.5228 20 10 20C4.47715 20 0 15.5228 0 10C0 4.47715 4.47715 0 10 0C15.5228 0 20 4.47715 20 10ZM19 10C19 14.9706 14.9706 19 10 19C5.02944 19 1 14.9706 1 10C1 5.02944 5.02944 1 10 1C14.9706 1 19 5.02944 19 10Z" fill="#B5B5B5"/>
</svg>
