<svg width="15" height="15" viewBox="0 0 15 15" fill="none" xmlns="http://www.w3.org/2000/svg">
<g opacity="0.8">
<path fill-rule="evenodd" clip-rule="evenodd" d="M5.65178 9.32676C7.47259 11.1545 10.4247 11.1545 12.2455 9.32676C14.0663 7.49904 14.0663 4.53571 12.2455 2.70799C10.4247 0.880264 7.47259 0.880264 5.65178 2.70799C3.83097 4.53571 3.83097 7.49904 5.65178 9.32676ZM4.70982 10.2723C7.05086 12.6222 10.8464 12.6222 13.1875 10.2723C15.5285 7.92237 15.5285 4.11238 13.1875 1.76245C10.8464 -0.587483 7.05086 -0.587483 4.70982 1.76245C2.36877 4.11238 2.36877 7.92237 4.70982 10.2723Z" fill="#2D2D2D"/>
<path fill-rule="evenodd" clip-rule="evenodd" d="M0 14.0545L4.70982 9.32676L5.65178 10.2723L0.941963 15L0 14.0545Z" fill="#2D2D2D"/>
</g>
</svg>
