<svg width="18" height="11" viewBox="0 0 18 11" fill="none" xmlns="http://www.w3.org/2000/svg">
<path fill-rule="evenodd" clip-rule="evenodd" d="M8.43975 10.2028H9.47084C9.47084 10.2028 9.7823 10.169 9.94131 9.99912C10.0877 9.8432 10.083 9.5504 10.083 9.5504C10.083 9.5504 10.0629 8.17963 10.705 7.97777C11.338 7.77893 12.1508 9.3026 13.0124 9.88845C13.6638 10.3318 14.1589 10.2346 14.1589 10.2346L16.4625 10.2028C16.4625 10.2028 17.6676 10.1293 17.0962 9.19053C17.0494 9.11374 16.7635 8.4961 15.3834 7.22696C13.939 5.89865 14.1324 6.1135 15.8724 3.81582C16.9321 2.41652 17.3557 1.56223 17.2234 1.19633C17.0972 0.84784 16.3178 0.939952 16.3178 0.939952L13.724 0.955961C13.724 0.955961 13.5318 0.929975 13.3892 1.01443C13.2498 1.09726 13.1601 1.2903 13.1601 1.2903C13.1601 1.2903 12.7496 2.37313 12.2021 3.29401C11.0471 5.23717 10.5853 5.33972 10.3966 5.21907C9.95747 4.93787 10.0671 4.08937 10.0671 3.48659C10.0671 1.60353 10.3553 0.818374 9.50574 0.615126C9.22378 0.547609 9.0163 0.503061 8.29526 0.495868C7.36978 0.486356 6.58644 0.498652 6.1429 0.713966C5.84784 0.857121 5.62021 1.17615 5.75885 1.19448C5.93027 1.21721 6.31854 1.29819 6.52438 1.57591C6.79018 1.93415 6.78081 2.73879 6.78081 2.73879C6.78081 2.73879 6.9335 4.9555 6.42415 5.2309C6.07452 5.41977 5.59492 5.03415 4.56523 3.27128C4.03762 2.36826 3.63928 1.37011 3.63928 1.37011C3.63928 1.37011 3.56247 1.18357 3.42547 1.0838C3.2592 0.962921 3.02689 0.924407 3.02689 0.924407L0.562143 0.940415C0.562143 0.940415 0.192138 0.950625 0.0563129 1.11002C-0.0645243 1.25179 0.0467115 1.54506 0.0467115 1.54506C0.0467115 1.54506 1.97636 6.01791 4.16127 8.27197C6.16468 10.3386 8.43975 10.2028 8.43975 10.2028Z" fill="white"/>
</svg>
